<?xml version="1.0" encoding="UTF-8"?><svg id="Warstwa_1" xmlns="http://www.w3.org/2000/svg" viewBox="0 0 653.19 198.63"><defs><style>.cls-1{fill:#ff8900;}.cls-2{fill:#c198f0;}</style></defs><path id="Path_1" class="cls-1" d="M77.07,20.45l-6.99,95.06H28.55L24.18,20.45h52.89Zm16.95,94.84c0-12.97,2.22-24.22,6.67-33.77,4.44-9.54,10.53-16.83,18.25-21.86,7.73-5.03,16.78-7.65,26.01-7.54,8.01,0,14.9,1.64,20.65,4.92,5.6,3.12,10.19,7.79,13.22,13.44V15.19h48.52V176.92h-48.52v-16.83c-3.03,5.65-7.62,10.31-13.22,13.44-5.76,3.28-12.64,4.92-20.65,4.92-9.22,.11-18.28-2.51-26.01-7.54-7.72-5.03-13.81-12.31-18.25-21.86-4.44-9.54-6.67-20.8-6.67-33.76Zm85.02,0c0-6.56-1.68-11.66-5.03-15.3-6.89-7.12-18.26-7.31-25.38-.41-.14,.13-.28,.27-.41,.41-3.35,3.64-5.03,8.74-5.03,15.3s1.68,11.66,5.03,15.3c6.89,7.12,18.26,7.31,25.38,.41,.14-.13,.28-.27,.41-.41,3.35-3.64,5.02-8.74,5.02-15.3h0Zm188.79-1.09c0,3.22-.21,6.43-.66,9.62h-78.02c.73,10.64,5.17,15.96,13.33,15.96,5.25,0,9.03-2.4,11.36-7.21h51.36c-1.69,8.62-5.48,16.69-11.04,23.49-5.72,7.01-12.98,12.62-21.2,16.39-8.8,4.07-18.39,6.12-28.08,6.01-12.24,0-23.13-2.55-32.67-7.65-9.42-4.98-17.17-12.62-22.29-21.96-5.32-9.54-7.98-20.73-7.98-33.55s2.66-24,7.98-33.55c5.12-9.35,12.87-16.98,22.29-21.96,9.54-5.1,20.43-7.65,32.67-7.65s23.13,2.51,32.67,7.54c9.37,4.86,17.11,12.34,22.29,21.53,5.32,9.32,7.98,20.32,7.98,33Zm-49.18-11.58c0-4.08-1.31-7.18-3.93-9.29-2.81-2.17-6.29-3.3-9.83-3.17-8.6,0-13.62,4.15-15.08,12.46h28.85Zm59.72,14.21c0-12.97,2.22-24.22,6.67-33.77,4.44-9.54,10.53-16.83,18.25-21.86,7.73-5.03,16.78-7.65,26.01-7.54,8.01,0,14.93,1.64,20.76,4.92,5.65,3.1,10.28,7.77,13.33,13.44v-16.83h48.3v123.27h-48.3v-16.83c-3.05,5.67-7.68,10.34-13.33,13.44-5.83,3.28-12.75,4.92-20.76,4.92-9.22,.11-18.28-2.51-26.01-7.54-7.72-5.03-13.81-12.31-18.25-21.86s-6.67-20.8-6.67-33.77Zm85.02,0c0-6.56-1.68-11.66-5.03-15.3-6.89-7.12-18.26-7.31-25.38-.41-.14,.13-.28,.27-.41,.41-3.35,3.64-5.03,8.74-5.03,15.3s1.68,11.66,5.03,15.3c6.89,7.12,18.26,7.31,25.38,.41,.14-.13,.28-.27,.41-.41,3.35-3.64,5.03-8.74,5.03-15.3Zm123.58,63.38c-11.66,0-21.97-1.89-30.93-5.68-8.96-3.79-16.06-9.03-21.31-15.74-5.17-6.52-8.29-14.43-8.96-22.73h46.55c.35,3.24,2.05,6.18,4.7,8.09,2.9,1.85,6.29,2.76,9.73,2.62,2.09,.11,4.16-.46,5.9-1.64,1.35-.9,2.17-2.42,2.19-4.04,0-2.77-1.53-4.74-4.59-5.9-5.07-1.69-10.26-3.01-15.52-3.93-7.45-1.37-14.79-3.27-21.97-5.68-5.86-2.11-11.06-5.73-15.08-10.49-4.3-4.96-6.45-11.8-6.45-20.54-.07-7.33,2.02-14.51,6.01-20.65,4.01-6.19,9.94-11.07,17.81-14.64,7.87-3.57,17.41-5.35,28.63-5.36,16.61,0,29.62,4.08,39.01,12.24,9.4,8.16,15.04,18.8,16.94,31.91h-43.05c-.55-3.05-2.18-5.81-4.59-7.76-2.33-1.82-5.47-2.73-9.4-2.73-2-.13-3.98,.37-5.68,1.42-1.34,1-2.08,2.6-1.97,4.26,0,2.48,1.53,4.33,4.59,5.57,4.76,1.7,9.66,2.98,14.64,3.83,7.64,1.42,15.16,3.39,22.51,5.9,6.23,2.26,11.74,6.15,15.96,11.25,4.52,5.32,6.78,12.64,6.78,21.97,.07,7.07-2.15,13.97-6.34,19.67-4.23,5.83-10.31,10.42-18.25,13.77s-17.23,5.03-27.86,5.03Z"/><ellipse id="Ellipse_1" class="cls-2" cx="48.83" cy="152.94" rx="27.86" ry="25.72"/></svg>